PathFileType	4	(X/Y/Z)	Patient4_TMGait_0pt4_03_left_33.trc.trc
DataRate	CameraRate	NumFrames	NumMarkers	Units	OrigDataRate	OrigDataStartFrame	OrigNumFrames
72.538860103627	72.538860103627	4	33	mm	72.538860103627	1	       141
Frame#	Time	Sacral			L.Shoulder			Chest			R.Shoulder			Neck			R.ASIS			L.ASIS			R.Thigh.Superior			R.Thigh.Lateral			R.Thigh.Inferior			R.Patella			L.Thigh.Superior			L.Thigh.Lateral			L.Thigh.Inferior			L.Patella			L.Shank.Superior			L.Shank.Lateral			L.Shank.Inferior			R.Shank.Superior			R.Shank.Lateral			R.Shank.Inferior			R.Heel			R.Midfoot.Superior			R.Midfoot.Lateral			R.Toe			L.Heel			L.Midfoot.Lateral			L.Midfoot.Superior			L.Toe			L.Elbow			L.Wrist			R.Elbow			R.Wrist			
		X1	Y1	Z1	X2	Y2	Z2	X3	Y3	Z3	X4	Y4	Z4	X5	Y5	Z5	X6	Y6	Z6	X7	Y7	Z7	X8	Y8	Z8	X9	Y9	Z9	X10	Y10	Z10	X11	Y11	Z11	X12	Y12	Z12	X13	Y13	Z13	X14	Y14	Z14	X15	Y15	Z15	X16	Y16	Z16	X17	Y17	Z17	X18	Y18	Z18	X19	Y19	Z19	X20	Y20	Z20	X21	Y21	Z21	X22	Y22	Z22	X23	Y23	Z23	X24	Y24	Z24	X25	Y25	Z25	X26	Y26	Z26	X27	Y27	Z27	X28	Y28	Z28	X29	Y29	Z29	X30	Y30	Z30	X31	Y31	Z31	X32	Y32	Z32	X33	Y33	Z33	

1	43.550000000000	870.519678107208	1004.622183507252	506.910530444123	1035.761749470457	1431.979855984675	314.311931709546	1146.706119771626	1370.427905992851	472.935369873069	1068.068737834742	1442.774410895819	649.786656412783	1018.624595327576	1496.243461407821	470.042176818129	1105.560074858728	942.849986248232	617.042735096889	1081.001141725744	964.445654868244	344.775513461450	1141.959659242973	739.861928543142	586.073527725969	1058.359593391415	631.442827496060	645.696143993734	1133.276604445165	578.585681008410	564.525390330301	1130.042915236308	490.945439256671	568.816046219326	1161.977203786053	775.955071111759	362.738832337925	1110.531087942289	653.018509876165	280.416818784274	1217.236235206439	588.643813582639	332.890791896294	1227.950497054724	499.922881219451	322.781825080020	1159.555303387061	434.240614733824	314.054964836908	1015.283611476264	397.173891255260	268.328401102642	1002.281506690629	264.280537302070	316.070590399765	1099.980719827544	402.507424104957	575.172356976159	1025.972941572895	300.827182967524	636.073497632421	1063.261289391885	204.892237031461	570.935191976999	925.315540155187	43.126149691940	538.663856250349	1094.889371403296	96.352764077024	578.978808483591	1007.043818249971	37.203465664119	616.329815154907	1215.455750153459	43.632721669666	610.158587858749	812.899034514535	210.216527209703	358.578019915415	862.739659226518	159.651114612676	275.776600323702	969.713930968123	157.639972978623	293.368236601817	1035.394909575934	38.341798842226	260.781564161294	988.831639993265	1077.755288460126	209.441947649142	1032.646933664115	820.297212066327	199.561880112907	1102.657354997844	1114.459442245430	806.225055368630	1341.091549921033	1032.377161147170	759.056613218246	
2	43.563785714286	869.601455880671	1005.678043980348	509.375265803453	1034.309627239623	1432.416297034858	315.651803821592	1146.802156571634	1370.435863663806	472.985577235136	1070.515182078320	1443.311946908227	650.591387621085	1019.167309365348	1496.611390984266	471.463809285347	1104.986317212975	942.718052564671	617.347862450556	1078.407195601416	965.138108260316	345.398238423783	1139.074986608652	739.243060166982	585.898180706240	1055.024158522219	631.496614161817	646.221643809334	1128.802173288050	578.038501459019	564.563843581284	1125.009874136445	490.646784820313	568.987503088084	1160.811239569715	778.991114796785	363.184059018704	1110.870654284075	655.524499884071	280.558865878088	1218.484819932574	592.634132444005	332.648670149172	1230.906214127894	504.658433584811	322.265358397958	1165.162319325104	437.453494816164	313.563373928671	1022.833840653300	393.953584494742	268.718420515112	1016.798811827829	260.713554903082	315.528409090421	1094.694773242470	402.405428114452	575.536298395480	1020.638342177527	300.722082572357	636.639706995957	1057.567909946867	204.822771977140	571.232306714281	919.460268201618	43.131360360937	538.822767003594	1089.040355735284	96.293729117582	579.131681016342	1001.131548401123	37.171378886962	616.429823905993	1209.554345543344	43.554162908911	610.224044967154	831.612797142860	196.295233261307	359.221960913140	882.966096302756	149.723475949926	275.376229047312	989.544851024242	153.732041370043	291.993783020571	1061.215769628319	39.398659055245	257.279959156794	978.990648444623	1079.186204260626	213.229309200536	1016.458194447370	820.842031636555	206.883149404411	1112.017137392282	1116.604793450663	806.592136364368	1352.099865495158	1052.637350200826	755.511164880882	
3	43.577571428571	868.695264864997	1006.720406706550	511.808937836103	1032.853351704197	1432.849495426974	316.975010438669	1146.902955449492	1370.420250508079	472.992172407368	1072.987755017614	1443.809043481265	651.360856255367	1019.726115780748	1496.958366062996	472.869778359322	1104.408851528052	942.569232627809	617.595014039428	1075.801683737709	965.806073431571	345.963414514845	1136.174392009190	738.623228932584	585.675535865991	1051.697482143406	631.545890963118	646.731265171850	1124.322380574290	577.491083943562	564.579029724627	1119.969381629444	490.349624566743	569.148498649618	1159.540746555432	781.899455482104	363.620332263716	1111.091428941598	657.927131748584	280.706921289247	1219.510891188776	596.449478142235	332.529848442309	1233.621918115596	509.271471631087	321.827980774843	1170.597546041802	440.588515200346	313.088026548589	1030.385364305926	390.545779391183	269.072142149063	1031.469093388797	257.061802506507	314.916979863430	1089.416277615190	402.300536461613	575.889191853671	1015.313949796833	300.622223016915	637.208402680254	1051.887066307535	204.758036893843	571.527661685227	913.623017278000	43.136089289621	538.979254527660	1083.212395636740	96.233548919419	579.280550000889	995.243297054631	37.138099979229	616.530161861758	1203.676551339081	43.474997537721	610.286805436834	850.753407926244	182.144030358515	359.721163862244	903.572509599473	139.708458169858	274.824079193813	1009.629108184804	149.816664858305	290.525068985691	1087.291404015794	40.672843813921	253.631495143284	969.226782814868	1080.651666747608	217.004099181655	1000.484318125630	821.470863472147	214.123954415485	1121.354448807058	1118.710386701689	806.875003292289	1362.781596204992	1072.720681943606	751.918081698421	
4	43.591357142857	867.812825667219	1007.728397678035	514.158028004632	1031.404347529103	1433.271231770043	318.247953489601	1147.010106670976	1370.358524713340	472.913187216439	1075.484508486238	1444.225197076084	652.051295444334	1020.310003039710	1497.262451998785	474.228265367074	1103.827127262174	942.391874456273	617.728387177684	1073.195196309100	966.419650050163	346.412483970164	1133.265803486280	738.003976558097	585.374849072061	1048.398643633494	631.585912425684	647.203344501907	1119.856101470154	576.944315274720	564.554213275989	1114.939782642057	490.056006199426	569.287425887805	1158.076010961720	784.538765049358	364.035148096794	1111.074241700164	660.116001412577	280.847461111124	1220.109142640447	599.905078029087	332.608261229747	1235.862327473900	513.622701363924	321.530873921994	1175.667662260043	443.563768085366	312.650688333660	1037.906697640231	386.854392495120	269.332494422254	1046.295986084220	253.337957333432	314.197510174358	1084.177045691146	402.193693495956	576.218782992994	1010.031652102458	300.532306893074	637.771609918908	1046.255339615619	204.700408200681	571.815350607445	907.842460766814	43.141480108951	539.129463712243	1077.447515953264	96.171791060494	579.419908740113	989.423724359825	37.103869533030	616.630197795320	1197.865844257680	43.396294803028	610.344257736103	870.514666790946	167.789664944978	359.938956114374	924.735278263718	129.682731117838	274.022178517338	1030.023934911169	145.974050534778	288.935951213329	1113.626823846583	42.369690498943	249.872882859286	959.685029359179	1082.167368599933	220.715227557191	985.033064076126	822.243209527585	221.154654198676	1130.589450658272	1120.724570056242	806.980458505386	1372.803071198732	1092.301706450975	748.258271042936	
